<?xml version="1.0" encoding="UTF-8"?>
<svg id="Layer_1" data-name="Layer 1" xmlns="http://www.w3.org/2000/svg" xmlns:xlink="http://www.w3.org/1999/xlink" viewBox="0 0 1275.31 512.76">
  <defs>
    <style>
      .cls-1 {
        fill: url(#linear-gradient-10);
      }

      .cls-2 {
        fill: url(#linear-gradient);
        stroke: url(#linear-gradient-2);
      }

      .cls-2, .cls-3, .cls-4, .cls-5 {
        stroke-miterlimit: 10;
      }

      .cls-3 {
        fill: url(#linear-gradient-3);
        stroke: url(#linear-gradient-4);
      }

      .cls-6 {
        fill: url(#linear-gradient-7);
      }

      .cls-4 {
        fill: url(#linear-gradient-5);
        stroke: url(#linear-gradient-6);
      }

      .cls-5 {
        fill: url(#linear-gradient-8);
        stroke: url(#linear-gradient-9);
      }

      .cls-7 {
        fill: #6be2d6;
        font-family: BebasNeue-Regular, 'Bebas Neue';
        font-size: 60px;
        letter-spacing: .15em;
      }
    </style>
    <linearGradient id="linear-gradient" x1="169.19" y1="213.59" x2="168.17" y2="67.87" gradientUnits="userSpaceOnUse">
      <stop offset=".49" stop-color="#10101a"/>
      <stop offset=".97" stop-color="#1a182a"/>
    </linearGradient>
    <linearGradient id="linear-gradient-2" x1="0" y1="282.2" x2="341.29" y2="282.2" gradientUnits="userSpaceOnUse">
      <stop offset="0" stop-color="#fff"/>
      <stop offset=".26" stop-color="#000"/>
    </linearGradient>
    <linearGradient id="linear-gradient-3" x1="428.91" y1="386.77" x2="430.23" y2="73.63" gradientUnits="userSpaceOnUse">
      <stop offset=".7" stop-color="#10101a"/>
      <stop offset="1" stop-color="#1a182a"/>
    </linearGradient>
    <linearGradient id="linear-gradient-4" x1="381.57" x2="477.14" xlink:href="#linear-gradient-2"/>
    <linearGradient id="linear-gradient-5" x1="713.98" y1="292.87" x2="713.09" y2="73.6" gradientUnits="userSpaceOnUse">
      <stop offset=".45" stop-color="#10101a"/>
      <stop offset="1" stop-color="#1a182a"/>
    </linearGradient>
    <linearGradient id="linear-gradient-6" x1="526.49" x2="903.57" xlink:href="#linear-gradient-2"/>
    <linearGradient id="linear-gradient-7" x1="1084.98" y1="321.52" x2="1081.66" y2="121.72" gradientTransform="translate(1.98 -3.96)" gradientUnits="userSpaceOnUse">
      <stop offset=".06" stop-color="#10101a"/>
      <stop offset="1" stop-color="#1a182a"/>
    </linearGradient>
    <linearGradient id="linear-gradient-8" x1="1087.98" y1="245.6" x2="1088.18" y2="76.33" xlink:href="#linear-gradient-5"/>
    <linearGradient id="linear-gradient-9" x1="900.34" y1="284.76" x2="1275.31" y2="284.76" xlink:href="#linear-gradient-2"/>
    <linearGradient id="linear-gradient-10" x1="795.42" y1="276.54" x2="800.29" y2="12.12" gradientUnits="userSpaceOnUse">
      <stop offset="0" stop-color="#58bab5"/>
      <stop offset="0" stop-color="#58bbb6"/>
      <stop offset=".15" stop-color="#61cac5"/>
      <stop offset=".32" stop-color="#67d3ce"/>
      <stop offset=".57" stop-color="#69d6d1"/>
      <stop offset="1" stop-color="#5fc7c2"/>
    </linearGradient>
  </defs>
  <g>
    <path class="cls-2" d="M.5,504.26V60.14h338.33v75.78H90.34v99.38h217.84v73.92H90.34v119.88h250.45v75.16H.5Z"/>
    <path class="cls-3" d="M382.07,504.26V60.14h94.57v444.12h-94.57Z"/>
    <path class="cls-4" d="M526.99,502.82V61.04c0-.65.52-1.17,1.17-1.17h89.17c.4,0,.77.21.98.54l284.34,443.58-92.76.55c-.4,0-.77-.21-.99-.55l-189.08-295.17c-.63-1-2.17-.54-2.16.63l2.56,293.36c0,.65-.52,1.18-1.17,1.18h-90.92c-.65,0-1.17-.52-1.17-1.17Z"/>
  </g>
  <g>
    <path class="cls-6" d="M1097.71,512.26c-61.59,0-109.37-12.54-143.34-37.61-33.98-25.07-51.82-60.85-53.51-107.33h90.46c2.97,26.1,12.63,44.85,28.99,56.26,16.34,11.42,40.87,17.12,73.58,17.12,25.9,0,47.14-4.59,63.71-13.76s24.84-23.33,24.84-42.5c0-6.93-.96-13.15-2.87-18.65-1.91-5.5-5.84-10.4-11.79-14.68-5.95-4.28-11.05-7.74-15.29-10.4-4.25-2.65-12.1-5.5-23.57-8.56-11.47-3.06-20.18-5.29-26.12-6.73-5.95-1.42-16.99-3.97-33.13-7.64-19.54-4.48-35.58-8.35-48.1-11.62-12.53-3.26-26.34-8.35-41.41-15.29-15.08-6.93-26.98-14.57-35.68-22.93-8.71-8.35-16.04-19.36-21.98-33.02-5.95-13.65-8.92-29.25-8.92-46.78,0-41.99,16.03-74.3,48.1-96.93,32.06-22.63,74.22-33.94,126.46-33.94s93.22,11.83,124.23,35.47c31,23.65,48.2,57.29,51.6,100.91h-88.55c-2.55-21.19-11.79-37.51-27.71-48.92-15.93-11.41-35.99-17.12-60.2-17.12s-45.02,4.69-59.88,14.07c-14.87,9.38-22.3,21.81-22.3,37.3,0,16.72,7.33,28.95,21.98,36.69,14.65,7.75,40.45,15.5,77.4,23.24,22.08,4.49,40.13,8.67,54.15,12.54,14.01,3.88,29.19,9.38,45.55,16.51,16.34,7.14,29.09,14.98,38.22,23.55,9.13,8.56,16.77,19.88,22.93,33.94,6.15,14.06,9.24,30.27,9.24,48.62,0,43.22-16.35,77.06-49.05,101.52-32.71,24.46-75.39,36.69-128.05,36.69Z"/>
    <path class="cls-5" d="M1097.71,512.26c-61.59,0-109.37-12.54-143.34-37.61-33.98-25.07-51.82-60.85-53.51-107.33h90.46c2.97,26.1,12.63,44.85,28.99,56.26,16.34,11.42,40.87,17.12,73.58,17.12,25.9,0,47.14-4.59,63.71-13.76s24.84-23.33,24.84-42.5c0-6.93-.96-13.15-2.87-18.65-1.91-5.5-5.84-10.4-11.79-14.68-5.95-4.28-11.05-7.74-15.29-10.4-4.25-2.65-12.1-5.5-23.57-8.56-11.47-3.06-20.18-5.29-26.12-6.73-5.95-1.42-16.99-3.97-33.13-7.64-19.54-4.48-35.58-8.35-48.1-11.62-12.53-3.26-26.34-8.35-41.41-15.29-15.08-6.93-26.98-14.57-35.68-22.93-8.71-8.35-16.04-19.36-21.98-33.02-5.95-13.65-8.92-29.25-8.92-46.78,0-41.99,16.03-74.3,48.1-96.93,32.06-22.63,74.22-33.94,126.46-33.94s93.22,11.83,124.23,35.47c31,23.65,48.2,57.29,51.6,100.91h-88.55c-2.55-21.19-11.79-37.51-27.71-48.92-15.93-11.41-35.99-17.12-60.2-17.12s-45.02,4.69-59.88,14.07c-14.87,9.38-22.3,21.81-22.3,37.3,0,16.72,7.33,28.95,21.98,36.69,14.65,7.75,40.45,15.5,77.4,23.24,22.08,4.49,40.13,8.67,54.15,12.54,14.01,3.88,29.19,9.38,45.55,16.51,16.34,7.14,29.09,14.98,38.22,23.55,9.13,8.56,16.77,19.88,22.93,33.94,6.15,14.06,9.24,30.27,9.24,48.62,0,43.22-16.35,77.06-49.05,101.52-32.71,24.46-75.39,36.69-128.05,36.69Z"/>
  </g>
  <path class="cls-1" d="M797.15,126.5l-53.87.06s-39.84-64.47-39.48-64.47c26.75-.13,71.05-5.11,89.57-11.28,16.61-5.54,27.73-27.15,35.09-41.26.19-.36.56-.55.96-.55h60.99c.6,0,1.09-.05,1.07,1.55l-.76,279.93-91.67-.03-.81-162.86c0-.6-.49-1.09-1.09-1.09Z"/>
  <text class="cls-7" transform="translate(901.4 51)"><tspan x="0" y="0">©</tspan></text>
</svg>